# xmcd
#
# Track frame offsets:
#	150
#	3560
#	6970
#	24413
#	43663
#	60344
#	78014
#	95559
#	111429
#	128429
#	145098
#	161975
#	170861
#	185755
#	203271
#	217824
#	220381
#
# Disc length: 3175 seconds
#
# Revision: 0
# Processed by: cddbd v1.5.1PL2 Copyright (c) Steve Scherf et al.
# Submitted via: EasyCDDAExtractor 8.1.2.3
#
DISCID=e40c6511
DTITLE=Fort Minor - The rising
DYEAR=2005
DGENRE=Rap
TTITLE0=Introduction
TTITLE1=Introduction
TTITLE2=Remember The Name (feat. Style
TTITLE3=Right Now (feat. Black Thought
TTITLE4=Petrified
TTITLE5=Feel Like Home (feat. Styles O
TTITLE6=Where'd You Go (feat. Holly Br
TTITLE7=In Stereo
TTITLE8=Back Home (feat. Common and St
TTITLE9=Cigarettes
TTITLE10=Believe Me (feat. BoBo and Sty
TTITLE11=Get Me Gone
TTITLE12=High Road (feat. John Legend)
TTITLE13=Kenji
TTITLE14=Red To Black (feat. Kenna Jona
TTITLE15=The Battle (feat. Celph Titled
TTITLE16=Out The Back (feat. Mr. Hahn)
EXTD=
EXTT0=
EXTT1=
EXTT2=
EXTT3=
EXTT4=
EXTT5=
EXTT6=
EXTT7=
EXTT8=
EXTT9=
EXTT10=
EXTT11=
EXTT12=
EXTT13=
EXTT14=
EXTT15=
EXTT16=
PLAYORDER=
